<svg width="2978" height="2978" xmlns="http://www.w3.org/2000/svg" xmlns:xlink="http://www.w3.org/1999/xlink" xml:space="preserve" overflow="hidden"><defs><clipPath id="clip0"><rect x="135" y="135" width="2978" height="2978"/></clipPath></defs><g clip-path="url(#clip0)" transform="translate(-135 -135)"><path d="M931.745 1945.74C931.745 1966.12 925.657 1982.54 913 1995 925.657 1982.54 932 1966.12 932 1945.74 932 1934.78 929.552 1924.95 925.192 1916 929.44 1924.95 931.745 1934.79 931.745 1945.74Z" fill="#3CB997" fill-rule="evenodd"/><path d="M777.809 1874.41C767.494 1862 759 1846.86 759 1829 759 1846.86 766.385 1862 776.699 1874.41 787.031 1886.83 801.778 1898.36 839 1909 801.78 1898.36 788.14 1886.83 777.809 1874.41Z" fill="#3CB997" fill-rule="evenodd"/><path d="M2344.96 1838.66C2333.01 1824.54 2324 1807.31 2324 1787 2324 1807.31 2332 1824.54 2343.95 1838.66 2355.91 1852.78 2377.37 1865.89 2415 1878 2377.37 1865.89 2356.92 1852.78 2344.96 1838.66Z" fill="#3CB997" fill-rule="evenodd"/><path d="M2500.56 1868.59C2505.61 1873.93 2509.61 1879.82 2513 1886 2509.86 1879.82 2506.08 1873.93 2501.03 1868.59 2487.69 1854.5 2470.79 1841.97 2433 1831 2470.8 1841.97 2487.22 1854.51 2500.56 1868.59Z" fill="#3CB997" fill-rule="evenodd"/><path d="M1684 620C1681.82 615.617 1679.19 611.437 1675.68 607.652 1666.41 597.664 1645.68 588.778 1627 581 1645.68 588.778 1665.73 597.664 1675 607.652 1678.51 611.437 1681.46 615.62 1684 620Z" fill="#3CB997" fill-rule="evenodd"/><path d="M135 2648.4C135 2995.96 253.793 3113 572.157 3113L2723.99 3113C2942.39 3113 3115.09 3024.08 3112.98 2753.62L3112.98 524.3C3112.98 310.186 2978.67 135 2723.68 135L469.741 135C255.628 135.003 135 310.189 135 449L135 2648.4ZM527.739 1162.44C527.739 1162.44 745.753 1164.15 745.753 1244.11 745.753 1324.04 731.218 1334.73 622.207 1334.73L189.102 1334.73 189.102 967.971C213.833 957.329 243.865 950.823 280.649 950.823 498.663 950.82 527.739 1162.44 527.739 1162.44ZM2770.71 3058.9 477.278 3058.9C395.269 3058.9 321.169 3024 268.561 2968.53 576.773 2901.12 1021.76 2833.85 1589.47 2835.64L1589.47 2793.37C1533.19 2735.4 1413.92 2610.26 1290.6 2478.95L1132.77 2478.95C1058.81 2553.98 973.579 2605.17 884.804 2609.62 879.802 2609.87 874.798 2610.58 869.795 2610.58 772.258 2610.58 674.679 2563.18 579.535 2469.16L545.085 2435.43 578.04 2400.58C582.978 2395.25 700.769 2271.64 866.625 2268.05 962.744 2266.18 1053.45 2310.13 1136.65 2385.16L1194.62 2385.16C1126.29 2310.13 1060.23 2245.66 1006.15 2194.27L1020.43 2176.68C968.159 2209.89 906.349 2229.41 839.966 2229.41 653.757 2229.41 502.201 2077.93 502.201 1891.72 502.201 1705.5 653.598 1553.99 839.807 1553.99 1026.02 1553.99 1177.29 1705.5 1177.29 1891.72 1177.29 1988.74 1135.5 2076.09 1069.76 2137.75 1164.53 2227.84 1251.83 2302.87 1308.1 2365.73L1308.1 2271.88C1270.59 2227.16 1153.53 2072.75 1320.27 1796.3L1361.65 1728.3 1404.23 1794.7C1485.9 1919.1 1512.43 2029.26 1486.96 2122.01 1469.7 2184.93 1439.41 2223.27 1401.89 2243.53L1401.89 2461.59C1495.68 2543.95 1551.95 2596.26 1589.47 2629.86L1589.47 1716.18 1348.27 1452.02C1317.64 1471.28 1278.09 1482.61 1239.31 1482.61 1129.62 1482.61 1040.61 1393.37 1040.61 1283.67 1040.61 1173.98 1130.28 1084.77 1239.97 1084.77 1349.67 1084.77 1439.79 1173.98 1439.79 1283.67 1439.79 1324.39 1429.23 1362.25 1408.16 1393.81L1589.47 1591.3 1589.47 900.243C1439.41 883.918 1322.47 758.348 1322.47 606.218 1322.47 443.033 1451.49 310.286 1614.66 310.286 1777.84 310.286 1910.26 443.035 1910.26 606.218 1910.26 752.016 1795.8 873.227 1664.5 897.452L1664.5 1284.87C1702.01 1248.55 1734.85 1204.09 1766.04 1167.75 1767.8 1135.48 1778.97 1053.12 1840.29 991.679 1889.54 942.322 1958.12 918.72 2045.42 920.569L2077.17 921.397 2077.17 954.015C2077.17 1019.01 2051.77 1172.39 1818.01 1209.14 1791.43 1240.12 1702.01 1346.72 1664.5 1386.17L1664.5 1709.04 1712.04 1654.54C1713.9 1612.82 1727.15 1504.28 1805.47 1423.49 1864 1363.07 1945.14 1334.73 2046.6 1334.73L2084.85 1334.73 2088.03 1370.55C2097.04 1472.65 2072.81 1555.81 2018.27 1615.36 1967.49 1670.83 1892.5 1702.32 1795.7 1709.24L1664.5 1864.23 1664.5 2601.23 2174.12 2108.33C2104.13 2044.41 2060.57 1952.74 2060.57 1850.71 2060.57 1658.11 2217.27 1501.4 2409.87 1501.4 2602.48 1501.4 2759 1658.11 2759 1850.71 2759 2043.31 2602.13 2200.02 2409.52 2200.02 2349.41 2200.02 2292.45 2184.74 2243 2157.88L1664.5 2717.48 1664.5 2836.31C2049.93 2841.61 2489.55 2879.04 2979.14 2968.85 2926.55 3024.13 2852.57 3058.9 2770.71 3058.9ZM2359.86 1184.67C2190.04 1184.67 2284.39 1026.17 2340.98 988.419 2439.37 922.868 2605.18 980.863 2605.18 980.863 2605.18 980.863 2566.1 868.622 2646.25 775.802 2745.66 660.661 2916.56 782.733 2916.56 782.733 2916.56 782.733 2927.44 649.667 3058.88 635.627L3058.88 1184.67 2359.86 1184.67Z" fill="#282E38" fill-rule="evenodd"/><path d="M1608 491C1589.42 492.791 1576.96 499.172 1566.17 510.147 1555.39 521.123 1551 534.407 1551 550 1551 534.409 1555.73 521.123 1566.5 510.147 1577.29 499.172 1589.42 492.791 1608 491Z" fill="#3CB997" fill-rule="evenodd"/><path d="M1811 606.501C1811 498.699 1723.07 411 1614.99 411 1506.92 411 1419 498.699 1419 606.501 1419 714.299 1506.92 802 1614.99 802 1723.07 802 1811 714.296 1811 606.501ZM1553.59 688.329 1553.59 647.688C1553.59 652.285 1568.39 656.538 1579.67 660.449 1590.94 664.362 1610.44 666.612 1610.44 667.201L1610.44 613.793C1591.49 605.281 1571.73 596.066 1563.34 586.138 1554.96 576.21 1551.22 564.105 1551.22 549.821 1551.22 534.467 1556.49 521.382 1567.37 510.574 1578.26 499.766 1591.49 493.481 1610.44 491.717L1610.44 471.308 1629.4 471.308 1629.4 491.134C1645.64 492.114 1664.6 495.436 1683.55 501.111L1683.55 540.727C1664.6 532.415 1645.64 527.329 1629.4 525.471L1629.4 581.074C1645.64 588.803 1667.76 597.635 1677.08 607.56 1680.6 611.319 1682.64 615.476 1684.83 619.832 1689.02 626.979 1691.5 634.83 1691.5 643.583 1691.5 659.822 1686 672.905 1675.61 682.83 1665.21 692.758 1645.64 698.8 1629.4 700.952L1629.4 733.28 1610.44 733.28 1610.44 701.83C1591.49 701.73 1572.54 697.233 1553.59 688.329Z" fill="#FD4051" fill-rule="evenodd"/><path d="M1650 645.764C1650 636.06 1645.21 628.14 1629 622L1629 667C1645.21 664.824 1650 657.743 1650 645.764Z" fill="#FD4051" fill-rule="evenodd"/><path d="M1610 526C1591.46 528.42 1590 535.431 1590 547.039 1590 557.008 1591.46 565.323 1610 572L1610 526Z" fill="#FD4051" fill-rule="evenodd"/><path d="M2417 1753C2398.09 1756.47 2388 1766.53 2388 1783.19 2388 1797.49 2398.09 1809.42 2417 1819L2417 1753Z" fill="#282E38" fill-rule="evenodd"/><path d="M2409.49 2096C2544.87 2096 2655 1985.87 2655 1850.5 2655 1715.13 2544.87 1605 2409.49 1605 2274.13 1605 2164 1715.13 2164 1850.5 2164 1985.87 2274.13 2096 2409.49 2096ZM2322.25 1925.97C2341.17 1932.51 2350.22 1938.56 2366.22 1944.13 2382.21 1949.7 2397.93 1952.9 2416.85 1953.73L2416.85 1877.74C2379.01 1865.63 2356.83 1852.52 2344.92 1838.39 2333.03 1824.27 2324.46 1807.04 2324.46 1786.73 2324.46 1764.88 2335.11 1746.26 2350.55 1730.88 2366.01 1715.5 2379.01 1706.56 2416.85 1704.05L2416.85 1672.83 2433.07 1672.83 2433.07 1703.22C2470.9 1704.61 2489.82 1709.34 2508.74 1717.41L2508.74 1773.78C2489.82 1761.95 2451.98 1754.72 2433.07 1752.07L2433.07 1831.19C2470.9 1842.18 2487.3 1854.75 2500.52 1868.87 2505.53 1874.22 2509.3 1880.13 2512.41 1886.33 2517.92 1896.5 2521.32 1907.67 2521.32 1920.13 2521.32 1943.23 2512.97 1961.84 2498.22 1975.96 2483.46 1990.09 2470.91 1998.69 2433.07 2001.75L2433.07 2045.79 2416.85 2045.79 2416.85 2003C2379.02 2002.86 2360.1 1996.46 2322.26 1983.8L2322.26 1925.97Z" fill="#282E38" fill-rule="evenodd"/><path d="M2463 1923.27C2463 1909.68 2452.01 1898.59 2433 1890L2433 1953C2452.01 1949.96 2463 1940.04 2463 1923.27Z" fill="#282E38" fill-rule="evenodd"/><path d="M1239 1168C1175.59 1168 1124 1219.8 1124 1283.49 1124 1347.18 1175.59 1399 1239 1399 1302.41 1399 1354 1347.18 1354 1283.49 1354 1219.8 1302.41 1168 1239 1168Z" fill="#00B050" fill-rule="evenodd" fill-opacity="0.74902"/><path d="M840.005 1654C708.773 1654 602 1760.56 602 1891.51 602 2022.46 708.776 2129 840.005 2129 971.238 2129 1078 2022.47 1078 1891.51 1078 1760.56 971.238 1654 840.005 1654ZM912.733 1994.39C899.811 2006.73 876.818 2014.24 857.847 2016.92L857.847 2045.97 841.585 2045.97 841.585 2018.01C803.643 2017.89 784.672 2012.3 765.7 2001.23L765.7 1950.72C765.7 1956.44 786.721 1961.73 800.724 1966.58 814.725 1971.45 822.614 1974.25 841.585 1974.97L841.585 1908.6C803.643 1898.03 787.932 1886.57 777.508 1874.23 767.102 1861.89 759.041 1846.85 759.041 1829.1 759.041 1810.01 768.961 1793.76 782.474 1780.32 796.005 1766.89 803.643 1759.07 841.585 1756.89L841.585 1729.56 857.847 1729.56 857.847 1756.16C876.818 1757.38 895.789 1761.51 914.76 1768.56L914.76 1817.8C895.789 1807.47 876.818 1801.14 857.847 1798.83L857.847 1867.94C876.818 1877.55 903.302 1888.52 914.871 1900.86 919.27 1905.55 922.525 1910.74 925.181 1916.18 929.626 1925.04 932.111 1934.78 932.111 1945.62 932.111 1965.8 925.637 1982.06 912.733 1994.39Z" fill="#038DE8" fill-rule="evenodd"/><path d="M816 1826.07C816 1838.42 822.58 1848.73 842 1857L842 1800C822.58 1803 816 1811.69 816 1826.07Z" fill="#038DE8" fill-rule="evenodd"/><path d="M858 1919 858 1974C876.872 1971.34 884 1962.69 884 1948.05 884 1936.18 876.872 1926.51 858 1919Z" fill="#038DE8" fill-rule="evenodd"/><path d="M2913.44 782.894C2913.44 782.894 2743.96 660.998 2644.58 775.973 2564.46 868.656 2604.2 980.738 2604.2 980.738 2604.2 980.738 2438.8 923.202 2340.44 988.659 2283.86 1026.35 2189.89 1185 2359.65 1185L3053 1185 3053 636C2923.09 650.02 2913.44 782.894 2913.44 782.894Z" fill="#FFFFFF" fill-rule="evenodd"/><path d="M184.5 1334.5 622.959 1334.5C731.965 1334.5 746.5 1324.03 746.5 1244.21 746.5 1164.38 528.495 1162.76 528.495 1162.76 528.495 1162.76 496.734 951.5 278.731 951.5 241.946 951.497 222.401 958.048 184.5 968.675L184.5 1334.5Z" stroke="#FFFFFF" stroke-width="2.70417" stroke-miterlimit="8" fill="#FFFFFF" fill-rule="evenodd"/><path d="M2417.05 2046 2433.34 2046 2433.34 2001.95C2471.36 1998.89 2483.98 1990.3 2498.81 1976.17 2513.62 1962.04 2522 1943.43 2522 1920.32 2522 1907.87 2518.61 1896.69 2513.06 1886.52 2509.69 1880.32 2505.67 1874.41 2500.64 1869.06 2487.36 1854.94 2471.35 1842.37 2433.34 1831.37L2433.34 1752.25C2452.34 1754.9 2490.36 1762.13 2509.37 1773.96L2509.37 1717.59C2490.36 1709.52 2471.35 1704.79 2433.34 1703.39L2433.34 1673 2417.04 1673 2417.04 1704.23C2379.03 1706.73 2365.66 1715.68 2350.12 1731.06 2334.61 1746.44 2324.21 1765.06 2324.21 1786.91 2324.21 1807.23 2334.14 1824.45 2346.08 1838.58 2358.05 1852.71 2379.03 1865.83 2417.04 1877.93L2417.04 1953.93C2398.03 1953.1 2382.24 1949.9 2366.17 1944.33 2350.1 1938.76 2341.01 1932.71 2322 1926.17L2322 1984C2360.02 1996.66 2379.03 2003.06 2417.04 2003.21L2417.04 2046ZM2433.34 1889.84C2452.35 1898.47 2463.34 1909.6 2463.34 1923.24 2463.34 1940.08 2452.35 1950.04 2433.34 1953.1L2433.34 1889.84ZM2387.89 1783.36C2387.89 1766.65 2398.04 1756.57 2417.05 1753.08L2417.05 1819.27C2398.04 1809.66 2387.89 1797.7 2387.89 1783.36Z" fill="#FFFFFF" fill-rule="evenodd"/><path d="M925.334 1915.97C922.673 1910.51 919.398 1905.32 914.995 1900.62 903.413 1888.26 876.902 1877.26 857.911 1867.64L857.911 1798.4C876.902 1800.72 895.893 1807.05 914.884 1817.4L914.884 1768.07C895.893 1761.01 876.902 1756.87 857.911 1755.65L857.911 1729 841.633 1729 841.633 1756.38C803.651 1758.58 795.702 1766.41 782.153 1779.86 768.623 1793.32 759 1809.61 759 1828.73 759 1846.51 768.493 1861.58 778.911 1873.95 789.345 1886.31 803.648 1897.79 841.63 1908.38L841.63 1974.88C822.639 1974.15 814.741 1971.35 800.726 1966.47 786.708 1961.6 765.666 1956.3 765.666 1950.58L765.666 2001.18C784.657 2012.27 803.648 2017.87 841.63 2017.99L841.63 2046 857.908 2046 857.908 2016.89C876.899 2014.21 899.916 2006.69 912.852 1994.33 925.768 1981.97 932 1965.68 932 1945.46 932.003 1934.6 929.67 1924.84 925.334 1915.97ZM841.633 1857.04C822.642 1848.64 816.206 1838.17 816.206 1825.62 816.206 1811.01 822.642 1802.18 841.633 1799.13L841.633 1857.04ZM857.911 1974.14 857.911 1918.79C876.902 1926.34 884.075 1936.09 884.075 1948.02 884.075 1962.76 876.902 1971.47 857.911 1974.14Z" fill="#FFFFFF" fill-rule="evenodd"/><path d="M1629.41 733 1629.41 700.666C1645.71 698.513 1665.18 692.474 1675.61 682.542 1686.03 672.616 1692 659.529 1692 643.291 1692 634.539 1688.91 626.688 1684.71 619.538 1682.15 615.181 1680.24 611.027 1676.71 607.264 1667.37 597.338 1645.71 588.506 1629.41 580.775L1629.41 525.166C1645.71 527.025 1664.72 532.111 1683.73 540.425L1683.73 500.803C1664.72 495.131 1645.71 491.806 1629.41 490.825L1629.41 471 1610.4 471 1610.4 491.414C1591.39 493.178 1578.19 499.463 1567.26 510.273 1556.35 521.083 1551 534.166 1551 549.524 1551 563.807 1555.04 575.916 1563.44 585.845 1571.86 595.774 1591.39 604.99 1610.4 613.504L1610.4 666.917C1610.4 666.331 1590.84 664.08 1579.53 660.164 1568.23 656.253 1553.37 651.999 1553.37 647.402L1553.37 688.047C1572.38 696.949 1591.39 701.449 1610.4 701.549L1610.4 733 1629.41 733ZM1629.41 621.866C1645.71 627.933 1650.52 635.758 1650.52 645.346 1650.52 657.182 1645.71 664.178 1629.41 666.328L1629.41 621.866ZM1589.89 547.029C1589.89 535.29 1591.39 528.2 1610.4 525.753L1610.4 572.27C1591.39 565.517 1589.89 557.106 1589.89 547.029Z" fill="#FFFFFF" fill-rule="evenodd"/><path d="M2009 988C1958.07 992.224 1917.54 1009.13 1888.26 1038.41 1857.57 1069.08 1844 1108.51 1838 1138 1937.6 1115.63 1995.91 1064.47 2009 988Z" fill="#00B050" fill-rule="evenodd" fill-opacity="0.74902"/><path d="M2006 1416C1947.25 1422.4 1900.1 1443.52 1865.48 1478.94 1821.2 1524.27 1804.95 1584.88 1799 1625 1869.28 1618.6 1922.17 1596.42 1956.6 1558.88 1993.9 1518.19 2005.06 1463.74 2006 1416Z" fill="#00B050" fill-rule="evenodd" fill-opacity="0.74902"/><path d="M1347.03 2165C1360.21 2155.23 1384.22 2132.98 1394.66 2095.01 1407.32 2048.99 1397.37 1991.11 1365.86 1925 1295 2076.7 1332.32 2145.84 1347.03 2165Z" fill="#00B050" fill-rule="evenodd" fill-opacity="0.74902"/><path d="M690 2433.64C755.194 2487.25 818.95 2512.71 879.733 2509.77 945.687 2506.49 1001.01 2469.45 1042 2429.56 986.624 2385.62 928.588 2363.45 869.477 2365.08 793.661 2366.47 728.816 2404.46 690 2433.64Z" fill="#00B050" fill-rule="evenodd" fill-opacity="0.74902"/><path d="M1664.94 2836 1664.94 2717.22 2243.2 2157.85C2292.63 2184.7 2349.55 2199.97 2409.64 2199.97 2602.2 2199.97 2759 2043.32 2759 1850.8 2759 1658.28 2602.52 1501.63 2409.97 1501.63 2217.43 1501.63 2060.78 1658.28 2060.78 1850.8 2060.78 1952.79 2104.38 2044.42 2174.35 2108.32L1664.94 2601.01 1664.94 1864.32 1796.04 1709.39C1892.81 1702.47 1967.75 1671 2018.52 1615.55 2073.04 1556.03 2097.25 1472.69 2088.24 1370.63L2085.04 1334.62 2046.81 1334.62C1945.38 1334.62 1864.26 1363.15 1805.75 1423.55 1727.45 1504.31 1714.26 1612.9 1712.41 1654.6L1664.94 1709.18 1664.94 1386.45C1702.83 1347.01 1792.6 1240.46 1819.17 1209.49 2052.86 1172.76 2079.02 1019.43 2079.02 954.468L2079.02 921.864 2046.46 921.036C1959.19 919.187 1890.22 942.78 1840.98 992.116 1779.68 1053.53 1768.36 1135.86 1766.6 1168.12 1735.42 1204.44 1702.83 1248.89 1664.94 1285.19L1664.94 897.927C1797.55 873.712 1910.57 752.551 1910.57 606.811 1910.57 443.693 1778.16 311 1615.03 311 1451.91 311 1323.93 443.696 1323.93 606.811 1323.93 758.878 1440.3 884.399 1591.86 900.718L1591.86 1591.5 1409.59 1394.09C1430.65 1362.54 1440.69 1324.69 1440.69 1284 1440.69 1174.35 1350.34 1085.17 1240.69 1085.17 1131.03 1085.17 1041.25 1174.35 1041.25 1284 1041.25 1393.65 1130.17 1482.85 1239.83 1482.85 1278.6 1482.85 1319.13 1471.53 1349.74 1452.27L1591.86 1716.33 1591.86 2629.63C1553.97 2596.04 1497.14 2543.75 1402.41 2461.43L1402.41 2243.46C1440.3 2223.2 1470.14 2184.88 1487.4 2121.98 1512.86 2029.27 1486.31 1919.16 1404.66 1794.81L1362.08 1728.43 1321.64 1796.41C1154.95 2072.75 1272.5 2227.09 1310.39 2271.79L1310.39 2365.6C1253.56 2302.77 1165.94 2227.77 1071.19 2137.72 1136.91 2076.09 1178.23 1988.77 1178.23 1891.79 1178.23 1705.65 1026.77 1554.2 840.618 1554.2 654.466 1554.2 503 1705.65 503 1891.79 503 2077.92 654.453 2229.34 840.602 2229.34 906.964 2229.34 968.727 2209.83 1020.98 2176.63L1006.69 2194C1060.75 2245.38 1126.78 2308.85 1195.09 2384.62L1137.14 2384.62C1053.96 2308.85 963.285 2265.89 867.195 2267.76 701.39 2271.35 583.633 2395.02 578.699 2400.35L545.754 2435.23 580.193 2468.97C675.309 2562.96 772.857 2610.36 870.365 2610.36 875.366 2610.36 880.368 2609.92 885.369 2609.68 974.116 2605.22 1059.32 2555.11 1133.26 2479.34L1291.04 2479.34C1414.32 2609.24 1535.03 2735.13 1591.86 2793.07L1591.86 2835.33C1616.22 2835.41 1640.58 2835.65 1664.94 2836ZM2164.13 1850.8C2164.13 1715.25 2274.41 1604.98 2409.96 1604.98 2545.53 1604.98 2655.81 1715.25 2655.81 1850.8 2655.81 1986.35 2545.53 2096.62 2409.96 2096.62 2274.41 2096.62 2164.13 1986.35 2164.13 1850.8ZM1866.14 1479.13C1900.75 1443.66 1947.9 1422.51 2006.65 1416.1 2005.71 1463.91 1994.55 1518.43 1957.26 1559.18 1922.83 1596.77 1869.94 1618.97 1799.66 1625.39 1805.61 1585.21 1821.86 1524.52 1866.14 1479.13ZM1888.73 1038.95C1917.99 1009.83 1958.49 993.031 2009.39 988.831 1996.3 1064.85 1938.04 1115.72 1838.5 1137.96 1844.5 1108.64 1858.06 1069.44 1888.73 1038.95ZM1239.54 1399.35C1175.93 1399.35 1124.19 1347.6 1124.19 1284 1124.19 1220.39 1175.93 1168.67 1239.54 1168.67 1303.15 1168.67 1354.9 1220.39 1354.9 1284 1354.9 1347.6 1303.15 1399.35 1239.54 1399.35ZM840.599 2129.43C709.548 2129.43 602.922 2022.83 602.922 1891.79 602.922 1760.75 709.55 1654.12 840.599 1654.12 971.651 1654.12 1078.27 1760.75 1078.27 1891.79 1078.26 2022.83 971.651 2129.43 840.599 2129.43ZM880.368 2510.05C819.543 2512.98 755.744 2487.52 690.505 2433.89 729.348 2404.7 794.238 2366.7 870.105 2365.31 929.257 2363.68 987.334 2385.86 1042.75 2429.81 1001.73 2469.71 946.367 2506.76 880.368 2510.05ZM1394.91 2095.54C1384.47 2133.56 1360.48 2155.85 1347.31 2165.64 1332.6 2146.45 1295.31 2077.19 1366.12 1925.25 1397.62 1991.46 1407.56 2049.44 1394.91 2095.54ZM1419.44 606.811C1419.44 498.791 1507.33 410.915 1615.35 410.915 1723.38 410.915 1811.28 498.791 1811.28 606.811 1811.28 714.826 1723.38 802.705 1615.35 802.705 1507.33 802.705 1419.44 714.824 1419.44 606.811Z" fill="#FFFFFF" fill-rule="evenodd"/><path d="M1589.63 2835.03C1022.04 2833.24 577.147 2901.86 269 2969.28 321.597 3024.76 395.682 3061 477.673 3061L2770.61 3061C2852.45 3061 2926.42 3024.89 2979 2969.6 2489.52 2879.77 2049.99 2841.67 1664.64 2836.37 1639.42 2836.02 1614.38 2835.11 1589.63 2835.03Z" fill="#038DE8" fill-rule="evenodd"/></g></svg>